<?xml version="1.0" standalone="no"?>
<!DOCTYPE svg PUBLIC "-//W3C//DTD SVG 20010904//EN"
 "http://www.w3.org/TR/2001/REC-SVG-20010904/DTD/svg10.dtd">
<svg version="1.0" xmlns="http://www.w3.org/2000/svg"
 width="700.000000pt" height="700.000000pt" viewBox="0 0 700.000000 700.000000"
 preserveAspectRatio="xMidYMid meet">
<metadata>
Created by potrace 1.14, written by Peter Selinger 2001-2017
</metadata>
<g transform="translate(0.000000,700.000000) scale(0.100000,-0.100000)"
fill="#000000" stroke="none">
<path d="M1405 6983 c-255 -53 -496 -241 -600 -468 -64 -141 -85 -245 -80
-405 10 -354 245 -662 590 -775 296 -96 623 -20 847 197 79 76 115 123 161
208 37 67 76 172 84 225 2 17 8 46 12 65 14 64 4 240 -18 325 -79 301 -310
535 -606 615 -103 28 -289 34 -390 13z m345 -274 c94 -30 167 -75 236 -143 72
-72 107 -126 140 -211 82 -219 28 -462 -137 -625 -185 -181 -438 -223 -674
-110 -210 100 -338 315 -329 552 6 155 61 277 178 394 80 80 181 136 288 158
85 18 217 12 298 -15z"/>
<path d="M5300 6985 c-184 -39 -364 -141 -474 -267 -458 -523 -150 -1337 537
-1417 507 -60 948 336 948 849 -1 395 -265 728 -656 827 -75 19 -282 24 -355
8z m343 -279 c368 -123 521 -554 312 -876 -23 -36 -59 -82 -81 -103 -157 -155
-393 -210 -596 -140 -426 147 -545 674 -224 986 153 148 388 201 589 133z"/>
<path d="M670 2518 l0 -2518 860 0 860 0 2 712 3 712 49 -125 c27 -68 58 -144
69 -169 26 -61 26 -61 108 -265 39 -99 94 -233 120 -297 27 -65 49 -120 49
-123 0 -3 9 -24 19 -48 11 -23 48 -113 83 -199 l63 -158 526 0 526 0 103 253
c57 138 149 365 205 502 218 536 248 606 252 601 3 -2 5 -317 4 -700 l0 -696
859 0 858 0 0 2515 c0 1906 -3 2515 -11 2516 -7 1 -435 2 -952 3 l-941 1 -239
-610 c-132 -335 -275 -700 -318 -810 -43 -110 -84 -214 -92 -232 -8 -17 -15
-34 -15 -37 0 -4 -38 -102 -84 -219 -46 -117 -99 -251 -117 -300 -18 -48 -36
-84 -39 -80 -4 5 -15 31 -25 58 -18 49 -266 675 -676 1705 l-209 525 -950 0
-950 0 0 -2517z m1723 2251 c2 -2 83 -206 181 -454 98 -247 184 -463 191 -480
7 -16 34 -82 58 -145 25 -63 124 -314 221 -558 170 -427 312 -804 392 -1040
21 -62 43 -111 49 -109 5 2 40 91 78 198 37 107 106 298 153 424 146 388 844
2159 853 2164 7 5 1395 6 1446 2 7 -1 10 -745 10 -2253 l0 -2253 -595 0 -595
0 1 930 c0 821 6 1206 19 1255 2 8 6 51 10 95 3 44 8 94 9 110 2 17 7 62 11
100 3 39 8 81 11 95 2 14 6 48 9 75 3 28 8 58 11 68 9 29 -23 20 -34 -10 -244
-680 -453 -1235 -473 -1257 -5 -6 -9 -16 -9 -23 0 -7 -11 -36 -24 -65 -13 -29
-32 -75 -42 -103 -10 -27 -24 -61 -31 -75 -7 -14 -13 -28 -13 -33 0 -4 -9 -26
-19 -50 -11 -23 -85 -202 -164 -397 -80 -195 -166 -407 -192 -470 -26 -63 -55
-135 -65 -160 l-18 -45 -350 -1 -351 -1 -56 141 c-31 77 -63 155 -70 171 -7
17 -40 98 -74 180 -221 549 -334 829 -356 880 -40 93 -167 416 -260 660 -230
604 -258 675 -267 675 -9 0 -6 -55 6 -115 4 -21 14 -93 21 -160 3 -22 7 -51
10 -65 4 -23 12 -95 20 -195 16 -177 19 -412 20 -1250 l0 -960 -597 -1 -598
-2 0 2254 0 2253 28 3 c41 5 1432 2 1435 -3z"/>
<path d="M1050 2525 l0 -2135 471 0 471 0 -6 208 c-4 114 -9 250 -11 302 -2
52 -7 169 -10 260 -3 91 -8 217 -10 280 -2 63 -7 185 -10 270 -3 85 -7 214
-10 285 -3 72 -7 193 -10 270 -2 77 -7 199 -9 270 -7 160 -15 383 -21 575 -5
138 -8 235 -20 540 -3 74 -4 132 -1 129 5 -5 19 -39 361 -889 356 -885 355
-882 370 -917 8 -17 15 -35 15 -40 0 -6 6 -23 14 -39 8 -16 38 -87 66 -159 28
-71 55 -139 60 -150 5 -11 28 -67 51 -125 23 -58 49 -123 59 -145 9 -22 93
-230 185 -462 l169 -423 246 0 247 0 43 107 c40 101 69 170 90 218 5 11 118
290 251 620 133 330 286 708 339 840 54 132 150 371 214 530 64 160 121 299
126 310 5 11 25 61 45 110 20 50 40 99 45 110 5 11 41 101 81 200 39 99 74
182 76 185 3 3 2 -92 -1 -210 -4 -118 -8 -309 -11 -425 -3 -115 -7 -298 -10
-405 -3 -107 -7 -285 -10 -395 -3 -110 -7 -281 -10 -380 -4 -167 -9 -351 -20
-815 -3 -102 -7 -287 -10 -412 l-6 -228 470 0 c366 0 470 3 473 13 2 6 3 966
3 2132 l-1 2120 -609 0 -610 0 -308 -755 c-302 -741 -447 -1096 -553 -1355
-29 -71 -118 -289 -197 -484 -80 -194 -147 -349 -150 -345 -5 9 -334 824 -439
1089 -33 83 -66 164 -73 180 -7 17 -124 307 -259 645 -136 338 -251 624 -256
635 -5 11 -43 103 -84 205 l-74 185 -616 3 -616 2 0 -2135z"/>
</g>
</svg>
