<svg width="56" height="53" viewBox="0 0 56 53" fill="none" xmlns="http://www.w3.org/2000/svg">
<path id="Vector" d="M45.5 1.66699C47.8206 1.66699 50.0462 2.58886 51.6872 4.22981C53.3281 5.87075 54.25 8.09635 54.25 10.417V33.7503C54.25 36.071 53.3281 38.2966 51.6872 39.9375C50.0462 41.5785 47.8206 42.5003 45.5 42.5003H18.5L11 51.501V42.5003H10.5C8.17936 42.5003 5.95376 41.5785 4.31282 39.9375C2.67187 38.2966 1.75 36.071 1.75 33.7503V10.417C1.75 8.09635 2.67187 5.87075 4.31282 4.22981C5.95376 2.58886 8.17936 1.66699 10.5 1.66699H45.5Z" stroke="#FAFAFA" stroke-width="2" stroke-linecap="round" stroke-linejoin="round"/>
</svg>
