<svg width="127" height="69" viewBox="0 0 127 69" fill="none" xmlns="http://www.w3.org/2000/svg">
<path d="M2.59184 20.0455C3.65466 20.0455 4.56806 19.4001 4.96801 18.4767H13.6936V40.6705C13.6936 45.3202 15.7368 47.9086 19.7283 47.9086C23.6722 47.9086 25.7629 45.2722 25.7629 40.6705V18.4767H35.9316V41.006C35.9316 44.6011 35.2188 47.5731 33.8408 49.9219C31.0373 54.5236 26.1906 56.8245 19.7283 56.8245C9.46459 56.8245 3.52497 51.312 3.52497 41.006V22.6601H1.3651V41.006C1.3651 46.5815 2.98165 51.1725 6.28609 54.3558C9.57467 57.5238 14.2305 59.0034 19.7283 59.0034C26.7276 59.0034 32.3844 56.4739 35.6809 51.0628L35.6904 51.0473L35.6995 51.0316C37.3227 48.265 38.0914 44.8841 38.0914 41.006V16.2978H23.6031V40.6705C23.6031 42.6766 23.1432 43.918 22.5627 44.6236C22.0355 45.2642 21.1911 45.7298 19.7283 45.7298C18.2229 45.7298 17.3878 45.2641 16.8767 44.6424C16.3084 43.951 15.8535 42.7166 15.8535 40.6705V16.2978H4.92835C4.50987 15.4212 3.62089 14.8162 2.59184 14.8162C1.1604 14.8162 0 15.9868 0 17.4308C0 18.8749 1.1604 20.0455 2.59184 20.0455Z" fill="#0685E6"/>
<path fill-rule="evenodd" clip-rule="evenodd" d="M39.091 58.0926V16.2978H54.7383L61.4576 33.3482C61.7337 34.0503 61.9981 34.7353 62.2509 35.4032C62.5035 34.725 62.7681 34.0275 63.0445 33.3121L63.0455 33.3096L69.6667 16.2978H85.3207V58.0926H71.2125V46.263L66.5548 57.7571H57.8999L53.2468 46.1785V58.0926H39.091ZM51.0803 40.6999C51.0447 38.6988 50.8642 36.5542 50.5167 34.2662C50.4615 33.9029 50.4021 33.5359 50.3385 33.1654L50.3266 33.0968H50.5167L53.6528 41.3895L59.3549 55.5782H65.1044L70.854 41.3895L73.8475 33.0968H74.0376L74.029 33.1635C73.964 33.6681 73.9035 34.1604 73.8475 34.6404C73.5759 36.9717 73.4133 39.0122 73.3791 40.7619C73.3746 40.9921 73.3724 41.2173 73.3724 41.4375V55.9138H83.1609V18.4767H71.1391L65.0569 34.1034C64.4463 35.6835 63.895 37.1739 63.4031 38.5577C63.024 39.6239 62.6802 40.6269 62.3716 41.559L62.3484 41.6292H62.1584L62.1351 41.5575C61.8282 40.6108 61.4865 39.6115 61.1099 38.5594C60.6164 37.1806 60.0631 35.7112 59.4499 34.1514L53.2727 18.4767H41.2509V55.9138H51.0869V41.4375C51.0869 41.1938 51.0847 40.9479 51.0803 40.6999Z" fill="#0685E6"/>
<path d="M122.831 44.2874C121.307 52.1387 115.219 56.8245 105.928 56.8245C102.412 56.8245 99.2758 56.0096 96.5674 54.3798C91.0554 51.1203 88.0143 45.0326 88.0143 37.2192C88.0143 33.4323 88.7746 29.981 90.2476 26.9132C93.2412 20.9693 98.8957 17.5659 105.928 17.5659C109.207 17.5659 112.058 18.237 114.576 19.6271C118.789 21.9379 121.7 25.7051 122.762 30.1031C122.933 30.814 123.057 31.5415 123.129 32.2819H112.676C111.725 28.6389 109.349 26.5777 105.928 26.5777C101.462 26.5777 98.0879 30.748 98.0879 37.2192C98.0879 43.978 101.414 47.8607 105.928 47.8607C109.587 47.8607 111.915 45.8954 112.676 42.1085H119.009V39.9297H110.909L110.559 41.676C110.249 43.2199 109.668 44.1682 108.997 44.7387C108.334 45.3025 107.367 45.6819 105.928 45.6819C104.343 45.6819 103.012 45.0263 102.022 43.7392C100.997 42.4064 100.248 40.2602 100.248 37.2192C100.248 31.3695 103.159 28.7565 105.928 28.7565C107.186 28.7565 108.126 29.1252 108.836 29.7289C109.563 30.3479 110.198 31.3444 110.587 32.8364L111.011 34.4608H125.514L125.279 32.067C124.682 25.9891 121.096 20.7242 115.611 17.7145C112.727 16.1234 109.51 15.3871 105.928 15.3871C98.1357 15.3871 91.7073 19.2045 88.322 25.9263L88.3127 25.9447L88.3038 25.9634C86.6766 29.3521 85.8544 33.1321 85.8544 37.2192C85.8544 45.6129 89.1517 52.5165 95.4681 56.2554C98.5491 58.1074 102.074 59.0034 105.928 59.0034C111.375 59.0034 116.024 57.5032 119.442 54.5563C122.555 51.8729 124.476 48.137 125.122 43.6946C126.206 43.3819 127 42.3746 127 41.1803C127 39.7363 125.84 38.5657 124.408 38.5657C122.977 38.5657 121.816 39.7363 121.816 41.1803C121.816 42.0949 122.282 42.8997 122.987 43.367C122.942 43.6784 122.89 43.9853 122.831 44.2874Z" fill="#0685E6"/>
<path fill-rule="evenodd" clip-rule="evenodd" d="M78.5111 11.9837C81.195 11.9837 83.3708 9.78881 83.3708 7.08128C83.3708 4.37374 81.195 2.17885 78.5111 2.17885C75.8271 2.17885 73.6514 4.37374 73.6514 7.08128C73.6514 9.78881 75.8271 11.9837 78.5111 11.9837ZM78.5111 14.1626C82.3878 14.1626 85.5306 10.9922 85.5306 7.08128C85.5306 3.1704 82.3878 0 78.5111 0C74.6343 0 71.4915 3.1704 71.4915 7.08128C71.4915 10.9922 74.6343 14.1626 78.5111 14.1626Z" fill="#0685E6"/>
<path fill-rule="evenodd" clip-rule="evenodd" d="M46.5451 11.9837C49.229 11.9837 51.4048 9.78881 51.4048 7.08128C51.4048 4.37374 49.229 2.17885 46.5451 2.17885C43.8611 2.17885 41.6854 4.37374 41.6854 7.08128C41.6854 9.78881 43.8611 11.9837 46.5451 11.9837ZM46.5451 14.1626C50.4219 14.1626 53.5646 10.9922 53.5646 7.08128C53.5646 3.1704 50.4219 0 46.5451 0C42.6683 0 39.5255 3.1704 39.5255 7.08128C39.5255 10.9922 42.6683 14.1626 46.5451 14.1626Z" fill="#0685E6"/>
<path d="M19.2508 67.8301C18.9009 67.8301 18.5834 67.7604 18.2983 67.621C18.0046 67.4815 17.7756 67.2593 17.6115 66.9542C17.4473 66.6492 17.3652 66.2722 17.3652 65.8234V62.8166H17.8318V65.7646C17.8318 66.3311 17.9592 66.7516 18.2141 67.0261C18.4689 67.3007 18.8145 67.4379 19.2508 67.4379C19.6698 67.4379 20.0111 67.2985 20.2746 67.0196C20.5381 66.7407 20.6698 66.3224 20.6698 65.7646V62.8166H21.1364V65.8038C21.1364 66.2701 21.05 66.6514 20.8772 66.9477C20.7087 67.244 20.4841 67.4641 20.2033 67.6079C19.9268 67.756 19.6093 67.8301 19.2508 67.8301Z" fill="#0090FF"/>
<path d="M24.1311 62.8166L25.8353 67.1242H25.8482L27.5459 62.8166H28.2068V67.7909H27.7403V64.2415C27.7403 63.9104 27.7468 63.6467 27.7597 63.4506H27.7468L26.0361 67.7909H25.6409L23.9303 63.4506H23.9173C23.9303 63.6467 23.9368 63.9104 23.9368 64.2415V67.7909H23.4702V62.8166H24.1311Z" fill="#0090FF"/>
<path d="M32.5781 67.9216C32.1072 67.9216 31.7098 67.8105 31.3859 67.5883C31.0619 67.3704 30.8178 67.0719 30.6537 66.6928C30.4895 66.3136 30.4074 65.8713 30.4074 65.3658C30.4074 64.8342 30.4938 64.3679 30.6666 63.967C30.8394 63.5617 31.09 63.248 31.4183 63.0257C31.7466 62.8035 32.1353 62.6924 32.5846 62.6924C33.0597 62.6924 33.4593 62.8079 33.7833 63.0388C34.1116 63.2654 34.3254 63.5901 34.4248 64.0128H33.9518C33.8654 63.7077 33.6991 63.4789 33.4528 63.3264C33.2109 63.1696 32.9194 63.0911 32.5781 63.0911C32.2368 63.0911 31.9388 63.1826 31.6839 63.3656C31.4291 63.5443 31.2303 63.8014 31.0878 64.137C30.9496 64.4725 30.8804 64.8625 30.8804 65.307C30.8804 65.7559 30.9474 66.148 31.0813 66.4836C31.2152 66.8148 31.4096 67.0719 31.6645 67.2549C31.9193 67.4336 32.2239 67.5229 32.5781 67.5229C32.8805 67.5229 33.1375 67.4641 33.3492 67.3464C33.5608 67.2331 33.725 67.0828 33.8416 66.8954C33.9626 66.708 34.0317 66.501 34.049 66.2744H34.5285C34.5025 66.5795 34.4118 66.8562 34.2563 67.1046C34.0965 67.3617 33.8719 67.5621 33.5824 67.7059C33.2973 67.8497 32.9626 67.9216 32.5781 67.9216Z" fill="#0090FF"/>
<path d="M39.991 62.8166L41.6951 67.1242H41.708L43.4057 62.8166H44.0666V67.7909H43.6001V64.2415C43.6001 63.9104 43.6066 63.6467 43.6195 63.4506H43.6066L41.896 67.7909H41.5007L39.7901 63.4506H39.7771C39.7901 63.6467 39.7966 63.9104 39.7966 64.2415V67.7909H39.33V62.8166H39.991Z" fill="#0090FF"/>
<path d="M47.6604 67.9216C47.3623 67.9216 47.101 67.8476 46.8763 67.6994C46.6517 67.5512 46.4768 67.3399 46.3515 67.0653C46.2305 66.7865 46.1701 66.4553 46.1701 66.0718C46.1701 65.697 46.237 65.3637 46.3709 65.0717C46.5048 64.7797 46.6863 64.5531 46.9152 64.3919C47.1485 64.2307 47.4077 64.15 47.6928 64.15C47.9303 64.15 48.1528 64.2089 48.3602 64.3265C48.5675 64.4398 48.736 64.5989 48.8656 64.8037V64.2415H49.3321V67.7909H48.9109L48.8656 67.1569C48.6021 67.6667 48.2003 67.9216 47.6604 67.9216ZM47.6733 67.5229C47.9411 67.5229 48.1874 67.414 48.412 67.1961C48.6366 66.9782 48.7878 66.7037 48.8656 66.3725V65.4835C48.7749 65.222 48.6215 64.9998 48.4055 64.8168C48.1895 64.6337 47.9627 64.5422 47.7252 64.5422C47.5092 64.5422 47.3191 64.6054 47.155 64.7318C46.9908 64.8582 46.8634 65.0368 46.7727 65.2678C46.6819 65.4987 46.6366 65.7667 46.6366 66.0718C46.6366 66.5163 46.7295 66.8692 46.9152 67.1307C47.101 67.3922 47.3537 67.5229 47.6733 67.5229Z" fill="#0090FF"/>
<path d="M52.5567 67.8432C52.3191 67.8432 52.142 67.7887 52.0254 67.6798C51.9131 67.5708 51.8569 67.3726 51.8569 67.085V64.6337H51.2737V64.2415H51.8569V63.346H52.3234V64.2415H53.25V64.6337H52.3234V67C52.3234 67.1699 52.3558 67.2854 52.4206 67.3464C52.4854 67.4074 52.6085 67.4379 52.79 67.4379C52.8677 67.4379 53.0254 67.427 53.263 67.4052V67.7713C52.9563 67.8192 52.7209 67.8432 52.5567 67.8432Z" fill="#0090FF"/>
<path d="M56.7684 67.9216C56.4229 67.9216 56.1205 67.8454 55.8613 67.6929C55.6064 67.5403 55.4099 67.3224 55.2717 67.0392C55.1334 66.7559 55.0643 66.4204 55.0643 66.0326C55.0643 65.6709 55.1356 65.3484 55.2781 65.0652C55.4207 64.7775 55.6194 64.5531 55.8743 64.3919C56.1334 64.2307 56.4315 64.15 56.7684 64.15C57.0319 64.15 57.2695 64.2023 57.4812 64.3069C57.6972 64.4071 57.87 64.5488 57.9996 64.7318C58.1335 64.9148 58.2155 65.1218 58.2458 65.3528H57.7728C57.7425 65.1087 57.6324 64.9126 57.4423 64.7645C57.2566 64.6163 57.0319 64.5422 56.7684 64.5422C56.5309 64.5422 56.317 64.6032 56.127 64.7253C55.9412 64.8429 55.7943 65.015 55.6863 65.2416C55.5827 65.4639 55.5308 65.7275 55.5308 66.0326C55.5308 66.4988 55.6388 66.8649 55.8548 67.1307C56.0751 67.3965 56.3797 67.5294 56.7684 67.5294C57.0622 67.5294 57.3019 67.4532 57.4877 67.3007C57.6777 67.1481 57.7836 66.9368 57.8052 66.6666H58.2782C58.2436 67.0588 58.0903 67.366 57.8181 67.5883C57.5503 67.8105 57.2004 67.9216 56.7684 67.9216Z" fill="#0090FF"/>
<path d="M60.753 62.7251V64.771C60.9431 64.5793 61.1547 64.4289 61.388 64.32C61.6256 64.2067 61.8761 64.15 62.1396 64.15C62.4766 64.15 62.7487 64.2568 62.956 64.4703C63.1634 64.6839 63.2671 64.9976 63.2671 65.4116V67.7909H62.8005V65.6469C62.8005 65.2765 62.7465 65.002 62.6385 64.8233C62.5305 64.6403 62.347 64.5488 62.0878 64.5488C61.8588 64.5488 61.6299 64.612 61.4009 64.7383C61.172 64.8603 60.956 65.0281 60.753 65.2416V67.7909H60.2865V62.7251H60.753Z" fill="#0090FF"/>
<path d="M66.0069 64.2415V67.7909H65.5404V64.2415H66.0069ZM65.7737 63.5748C65.67 63.5748 65.5857 63.5465 65.5209 63.4898C65.4605 63.4288 65.4302 63.3526 65.4302 63.2611C65.4302 63.1696 65.4605 63.0933 65.5209 63.0323C65.5857 62.9713 65.67 62.9408 65.7737 62.9408C65.8773 62.9408 65.9594 62.9713 66.0199 63.0323C66.0847 63.0933 66.1171 63.1696 66.1171 63.2611C66.1171 63.3526 66.0847 63.4288 66.0199 63.4898C65.9594 63.5465 65.8773 63.5748 65.7737 63.5748Z" fill="#0090FF"/>
<path d="M68.7163 64.2415L68.7487 64.771C68.9388 64.5793 69.1504 64.4289 69.3837 64.32C69.6213 64.2067 69.8718 64.15 70.1353 64.15C70.4723 64.15 70.7444 64.2568 70.9518 64.4703C71.1591 64.6839 71.2628 64.9976 71.2628 65.4116V67.7909H70.7962V65.6469C70.7962 65.2765 70.7422 65.002 70.6343 64.8233C70.5263 64.6403 70.3427 64.5488 70.0835 64.5488C69.8545 64.5488 69.6256 64.612 69.3967 64.7383C69.1677 64.8603 68.9517 65.0281 68.7487 65.2416V67.7909H68.2822V64.2415H68.7163Z" fill="#0090FF"/>
<path d="M74.508 68.608C74.8839 68.608 75.1776 68.5709 75.3893 68.4969C75.5966 68.4271 75.7435 68.3029 75.8299 68.1243C75.9206 67.9456 75.9659 67.6863 75.9659 67.3464V67.1634C75.6981 67.6689 75.2964 67.9216 74.7607 67.9216C74.4627 67.9216 74.2013 67.8476 73.9767 67.6994C73.7521 67.5512 73.5771 67.3399 73.4519 67.0653C73.3309 66.7865 73.2704 66.4553 73.2704 66.0718C73.2704 65.697 73.3374 65.3637 73.4713 65.0717C73.6052 64.7797 73.7866 64.5531 74.0156 64.3919C74.2489 64.2307 74.508 64.15 74.7931 64.15C75.0307 64.15 75.2532 64.2089 75.4605 64.3265C75.6679 64.4398 75.8364 64.5989 75.9659 64.8037V64.7514L76.0113 64.2415H76.4325V67.1372C76.4325 67.6079 76.3828 67.9761 76.2834 68.2419C76.1798 68.5077 75.9919 68.6995 75.7197 68.8171C75.4519 68.9392 75.0674 69.0002 74.5664 69.0002H73.8601V68.608H74.508ZM74.7737 67.5229C75.0415 67.5229 75.2877 67.414 75.5124 67.1961C75.737 66.9782 75.8882 66.7037 75.9659 66.3725V65.4835C75.8752 65.222 75.7219 64.9998 75.5059 64.8168C75.2899 64.6337 75.0631 64.5422 74.8255 64.5422C74.6096 64.5422 74.4195 64.6054 74.2553 64.7318C74.0912 64.8582 73.9638 65.0368 73.873 65.2678C73.7823 65.4987 73.737 65.7667 73.737 66.0718C73.737 66.5163 73.8298 66.8692 74.0156 67.1307C74.2013 67.3922 74.454 67.5229 74.7737 67.5229Z" fill="#0090FF"/>
<path d="M83.4011 67.9216C82.9303 67.9216 82.5329 67.8105 82.2089 67.5883C81.8849 67.3704 81.6408 67.0719 81.4767 66.6928C81.3125 66.3136 81.2305 65.8713 81.2305 65.3658C81.2305 64.8342 81.3169 64.3679 81.4896 63.967C81.6624 63.5617 81.913 63.248 82.2413 63.0257C82.5696 62.8035 82.9584 62.6924 83.4076 62.6924C83.8828 62.6924 84.2823 62.8079 84.6063 63.0388C84.9346 63.2654 85.1485 63.5901 85.2478 64.0128H84.7748C84.6884 63.7077 84.5221 63.4789 84.2759 63.3264C84.034 63.1696 83.7424 63.0911 83.4011 63.0911C83.0599 63.0911 82.7618 63.1826 82.5069 63.3656C82.2521 63.5443 82.0534 63.8014 81.9108 64.137C81.7726 64.4725 81.7035 64.8625 81.7035 65.307C81.7035 65.7559 81.7704 66.148 81.9043 66.4836C82.0383 66.8148 82.2326 67.0719 82.4875 67.2549C82.7424 67.4336 83.0469 67.5229 83.4011 67.5229C83.7035 67.5229 83.9605 67.4641 84.1722 67.3464C84.3839 67.2331 84.548 67.0828 84.6646 66.8954C84.7856 66.708 84.8547 66.501 84.872 66.2744H85.3515C85.3256 66.5795 85.2348 66.8562 85.0793 67.1046C84.9195 67.3617 84.6949 67.5621 84.4055 67.7059C84.1204 67.8497 83.7856 67.9216 83.4011 67.9216Z" fill="#0090FF"/>
<path d="M88.9101 67.9216C88.3831 67.9216 87.9706 67.7539 87.6725 67.4183C87.3788 67.0828 87.2319 66.6209 87.2319 66.0326C87.2319 65.6622 87.301 65.3353 87.4393 65.0521C87.5775 64.7645 87.7719 64.5422 88.0224 64.3854C88.273 64.2285 88.5581 64.15 88.8777 64.15C89.1672 64.15 89.4328 64.2132 89.6747 64.3396C89.9253 64.4703 90.1218 64.6664 90.2644 64.9279C90.4112 65.1894 90.489 65.5031 90.4977 65.8692V66.1372H87.6985C87.6985 66.5642 87.8043 66.9041 88.016 67.1569C88.2319 67.4052 88.53 67.5294 88.9101 67.5294C89.1953 67.5294 89.4264 67.475 89.6035 67.366C89.7849 67.2614 89.9102 67.1089 89.9793 66.9085H90.4717C90.3767 67.2266 90.1953 67.475 89.9274 67.6536C89.6596 67.8323 89.3205 67.9216 88.9101 67.9216ZM90.0376 65.745C90.0246 65.3746 89.9102 65.0826 89.6942 64.8691C89.4825 64.6512 89.2104 64.5422 88.8777 64.5422C88.5451 64.5422 88.2708 64.6534 88.0548 64.8756C87.8432 65.0935 87.7265 65.3833 87.7049 65.745H90.0376Z" fill="#0090FF"/>
<path d="M92.9388 64.2415L92.9712 64.771C93.1613 64.5793 93.373 64.4289 93.6062 64.32C93.8438 64.2067 94.0944 64.15 94.3579 64.15C94.6948 64.15 94.9669 64.2568 95.1743 64.4703C95.3816 64.6839 95.4853 64.9976 95.4853 65.4116V67.7909H95.0188V65.6469C95.0188 65.2765 94.9648 65.002 94.8568 64.8233C94.7488 64.6403 94.5652 64.5488 94.306 64.5488C94.0771 64.5488 93.8481 64.612 93.6192 64.7383C93.3902 64.8603 93.1743 65.0281 92.9712 65.2416V67.7909H92.5047V64.2415H92.9388Z" fill="#0090FF"/>
<path d="M98.7111 67.8432C98.4735 67.8432 98.2964 67.7887 98.1798 67.6798C98.0675 67.5708 98.0113 67.3726 98.0113 67.085V64.6337H97.4282V64.2415H98.0113V63.346H98.4779V64.2415H99.4044V64.6337H98.4779V67C98.4779 67.1699 98.5103 67.2854 98.5751 67.3464C98.6399 67.4074 98.763 67.4379 98.9444 67.4379C99.0222 67.4379 99.1798 67.427 99.4174 67.4052V67.7713C99.1107 67.8192 98.8753 67.8432 98.7111 67.8432Z" fill="#0090FF"/>
<path d="M102.897 67.9216C102.37 67.9216 101.957 67.7539 101.659 67.4183C101.366 67.0828 101.219 66.6209 101.219 66.0326C101.219 65.6622 101.288 65.3353 101.426 65.0521C101.564 64.7645 101.759 64.5422 102.009 64.3854C102.26 64.2285 102.545 64.15 102.865 64.15C103.154 64.15 103.42 64.2132 103.662 64.3396C103.912 64.4703 104.109 64.6664 104.251 64.9279C104.398 65.1894 104.476 65.5031 104.484 65.8692V66.1372H101.685C101.685 66.5642 101.791 66.9041 102.003 67.1569C102.219 67.4052 102.517 67.5294 102.897 67.5294C103.182 67.5294 103.413 67.475 103.59 67.366C103.772 67.2614 103.897 67.1089 103.966 66.9085H104.459C104.364 67.2266 104.182 67.475 103.914 67.6536C103.646 67.8323 103.307 67.9216 102.897 67.9216ZM104.024 65.745C104.011 65.3746 103.897 65.0826 103.681 64.8691C103.469 64.6512 103.197 64.5422 102.865 64.5422C102.532 64.5422 102.258 64.6534 102.042 64.8756C101.83 65.0935 101.713 65.3833 101.692 65.745H104.024Z" fill="#0090FF"/>
<path d="M106.926 64.2415L106.958 64.7122C107.096 64.5248 107.258 64.3854 107.444 64.2938C107.63 64.198 107.828 64.15 108.04 64.15C108.204 64.15 108.362 64.174 108.513 64.2219V64.6599C108.353 64.5989 108.181 64.5684 107.995 64.5684C107.913 64.5684 107.859 64.5706 107.833 64.5749C107.673 64.588 107.513 64.6512 107.353 64.7645C107.198 64.8734 107.066 65.0238 106.958 65.2155V67.7909H106.492V64.2415H106.926Z" fill="#0090FF"/>
</svg>
